<svg width="130" height="60" xmlns="http://www.w3.org/2000/svg" viewBox="0 0 180 66">
	<style>
		.svg-rect {
		fill: white; /* Button background color */
		stroke: #495057; /* Button border color */
		stroke-width: 1px;
		rx: 1; /* Button border radius */
		ry: 1; /* Button border radius */
		cursor: pointer;
		}
		.svg-text {
		fill: #212529; /* Text color */
		font-family: Arial, sans-serif;
		font-size: 15px;
		margin-right: 20px;
		font-weight: bold;
		dominant-baseline: middle;
		text-anchor: middle;
		pointer-events: none;
		}
		.bell {
		fill: none;
		stroke: #212529; /* Bell stroke color */
		stroke-width: 2px;
		stroke-linecap: round;
		stroke-linejoin: round;
		}
		.hand-svg {
		stroke-width=2;
		stroke=currentColor;
		fill=none;
		stroke-linecap=round;
		stroke-linejoin=round;
		}
	</style>
	<rect transform="translate(10,10)" class="svg-rect" x="0" y="0" width="90%" height="50"/>
	<text class="svg-text" x="91" y="36">SUBSCRIBE FORM</text>
	<g transform="translate(85,54) scale(1.1) rotate(-35 0 0)">
		<svg xmlns="http://www.w3.org/2000/svg" class="icon icon-tabler icon-tabler-hand-click" width="24" height="24" viewBox="0 0 24 24" stroke-width="2" stroke="currentColor" fill="none" stroke-linecap="round" stroke-linejoin="round">
			<path fill="#fff" stroke="none" d="M0 0h24v24H0z"/>
			<path d="M8 13v-8.5a1.5 1.5 0 0 1 3 0v7.5"/>
			<path d="M11 11.5v-2a1.5 1.5 0 0 1 3 0v2.5"/>
			<path d="M14 10.5a1.5 1.5 0 0 1 3 0v1.5"/>
			<path d="M17 11.5a1.5 1.5 0 0 1 3 0v4.5a6 6 0 0 1 -6 6h-2h.208a6 6 0 0 1 -5.012 -2.7l-.196 -.3c-.312 -.479 -1.407 -2.388 -3.286 -5.728a1.5 1.5 0 0 1 .536 -2.022a1.867 1.867 0 0 1 2.28 .28l1.47 1.47"/>
			<path d="M5 3l-1 -1"/>
			<path d="M4 7h-1"/>
			<path d="M14 3l1 -1"/>
			<path d="M15 6h1"/>
		</svg>
	</g>
</svg>
